<?xml version="1.0" encoding="iso-8859-1"?>
<!-- Generator: Adobe Illustrator 19.0.0, SVG Export Plug-In . SVG Version: 6.00 Build 0)  -->
<svg version="1.1" id="Capa_1" xmlns="http://www.w3.org/2000/svg" xmlns:xlink="http://www.w3.org/1999/xlink" x="0px" y="0px"
	 viewBox="0 0 512 512" style="enable-background:new 0 0 512 512;" xml:space="preserve">
<path style="fill:#806749;" d="M253.752,512L253.752,512c-22.405,0-40.736-18.331-40.736-40.736V345.492
	c0-22.404,18.331-40.736,40.736-40.736l0,0c22.404,0,40.736,18.331,40.736,40.736v125.772C294.488,493.669,276.157,512,253.752,512z
	"/>
<g>
	<path style="fill:#6A563D;" d="M253.752,304.757L253.752,304.757c-22.405,0-40.736,18.331-40.736,40.736v114.444
		c16.153-3.98,30.027-9.348,41.352-14.765c13.383,6.88,27.121,11.606,40.119,14.856V345.492
		C294.488,323.088,276.157,304.757,253.752,304.757z"/>
	<path style="fill:#6A563D;" d="M263.918,306.05v160.846c0,4.249,3.477,7.726,7.726,7.726c4.25,0,7.726-3.477,7.726-7.726V313.888
		C274.897,310.252,269.65,307.535,263.918,306.05z"/>
</g>
<path style="fill:#554431;" d="M279.37,455.63V313.888c-4.473-3.637-9.721-6.353-15.453-7.839v143.646
	C269.076,451.951,274.246,453.92,279.37,455.63z"/>
<path style="fill:#6A563D;" d="M237.545,432.543L237.545,432.543c-4.249,0-7.726,3.477-7.726,7.726v63.896
	c4.54,3.317,9.781,5.722,15.453,6.935v-70.831C245.271,436.019,241.795,432.543,237.545,432.543z"/>
<g>
	<path style="fill:#554431;" d="M245.271,449.258v-8.989c0-4.25-3.477-7.726-7.726-7.726l0,0c-4.249,0-7.726,3.477-7.726,7.726
		v14.805C235.319,453.24,240.476,451.277,245.271,449.258z"/>
	<circle style="fill:#554431;" cx="237.549" cy="416.101" r="7.726"/>
</g>
<path style="fill:#309185;" d="M375.141,209.907H136.858c0,0-35.431,78.841-76.345,119.448c-6.871,6.82-4.135,18.519,5.023,21.658
	c19.657,6.736,51.188,13.845,84.948,5.814c0.885,0.885,6.151,12.067,7.805,37.466c0.776,11.91,11.419,20.688,23.259,19.191
	c46.912-5.93,74.48-29.294,74.493-29.294c22.062,20.566,53.762,27.821,74.911,30.103c11.653,1.258,21.99-7.549,22.711-19.248
	c1.598-25.931,6.959-37.324,7.852-38.218c33.76,8.03,65.29,0.922,84.948-5.814c9.158-3.139,11.894-14.837,5.023-21.658
	C410.572,288.747,375.141,209.907,375.141,209.907z"/>
<path style="fill:#247C6F;" d="M375.141,209.907H136.858c0,0-35.431,78.841-76.346,119.448c-6.868,6.817-4.124,18.523,5.029,21.659
	c19.658,6.736,51.185,13.842,84.942,5.812c0.885,0.885,6.151,12.064,7.805,37.461c0.776,11.907,11.47,20.689,23.308,19.189
	c27.221-3.449,47.906-12.762,60.487-19.97c-4.816-13.264-6.21-28.568-5.511-44.247c0.849-19.037,18.087-33.205,36.899-30.167
	c24.868,4.016,53.73,16.568,70.445,16.568c0.357,0,0.714-0.001,1.067-0.002c15.208-0.063,29.77-6.857,39.023-18.925
	c9.252-12.068,19.36-52.96,19.36-52.96C386.319,234.777,375.141,209.907,375.141,209.907z"/>
<path style="fill:#3DA094;" d="M356.566,234.843c20.517,2.414,39.998-0.486,55.602-4.637c14.419-3.835,18.849-22.156,7.849-32.237
	c-30.578-28.024-63.451-75.507-63.451-75.507H155.343c0,0-32.873,47.483-63.451,75.507c-11,10.081-6.57,28.403,7.849,32.237
	c15.604,4.15,35.085,7.051,55.602,4.637c0.505,1.011-0.443,26.727-5.98,47.621c-2.957,11.158,5.197,22.185,16.74,22.284
	c25.615,0.22,64.781-3.907,89.851-27.759c25.07,23.852,64.236,27.98,89.851,27.759c11.543-0.099,19.697-11.126,16.74-22.284
	C357.009,261.57,356.061,235.853,356.566,234.843z"/>
<path style="fill:#309185;" d="M356.566,122.462H155.343c0,0-32.878,47.49-63.457,75.512c-11.036,10.113-6.49,28.428,7.979,32.265
	c15.584,4.132,35.015,7.011,55.478,4.604c0.507,1.014-0.45,26.915-6.041,47.85c-2.961,11.087,5.48,21.967,16.955,22.057
	c17.998,0.142,42.627-1.879,64.365-11.343c-6.24-17.934-9.043-35.44-8.051-52.048c0.854-14.312,6.441-24.157,12.835-30.969
	c9.018-9.608,23.545-11.33,34.884-4.616c17.916,10.607,36.005,15.447,50.753,16.589c21.037,1.63,33.777-6.777,42.307-18.662
	c8.418-11.728,10.739-26.859,6.236-40.553c5.169-0.673,10.477-1.566,15.886-2.64C368.894,140.268,356.566,122.462,356.566,122.462z"
	/>
<path style="fill:#4DB5A6;" d="M335.307,133.533c17.982,1.454,36.724-1.487,51.507-4.907c8.853-2.048,10.232-14.065,2.085-18.089
	C338.661,85.721,294.731,36.333,272.133,7.818c-8.261-10.424-24.102-10.424-32.364,0c-22.598,28.514-66.528,77.902-116.766,102.718
	c-8.147,4.025-6.768,16.041,2.085,18.089c14.782,3.42,33.525,6.36,51.507,4.907c0,0,1.652,19.819-4.883,39.161
	c-3.404,10.074,4.971,20.239,15.529,18.975c20.045-2.4,47.942-11.362,68.71-40.163c20.768,28.802,48.666,37.762,68.71,40.163
	c10.558,1.264,18.933-8.9,15.529-18.975C333.655,153.351,335.307,133.533,335.307,133.533z"/>
<path style="fill:#3DA094;" d="M271.965,7.616c-8.305-10.218-23.989-10.156-32.195,0.2
	c-22.598,28.514-66.528,77.902-116.766,102.718c-8.147,4.025-6.768,16.041,2.085,18.089c14.782,3.419,33.525,6.36,51.507,4.907
	c0,0,1.652,19.819-4.883,39.161c-3.404,10.074,4.971,20.239,15.529,18.975c11.938-1.43,26.66-5.188,41.004-14.077
	C206.003,110.677,247.085,41.34,271.965,7.616z"/>s
</svg>