<?xml version="1.0" encoding="UTF-8"?>
<svg width="216" height="216" viewBox="0 0 216 216" fill="none" xmlns="http://www.w3.org/2000/svg">
<circle cx="108" cy="108" r="80" transform="rotate(-116.242 108 108)" fill="white" fill-opacity="0.1"/>
<path d="M97.2 155.4C93.8667 155.4 91.1 154.567 88.9 152.9C86.7 151.3 85.6 149.067 85.6 146.2C85.6 138.533 93.4333 133.5 109.1 131.1C109.7 128.9 110.167 126.767 110.5 124.7C107.433 126.567 104.2 127.5 100.8 127.5C94.6 127.5 89.6 125.267 85.8 120.8C82 116.267 80.1 110.4 80.1 103.2C80.1 96 81.5 89.3333 84.3 83.2C87.1 77.0667 91.1 72 96.3 68C101.567 64 107.133 62 113 62C118.933 62 123.767 63.4667 127.5 66.4C131.3 69.2667 133.2 72.9333 133.2 77.4C133.2 80.0667 132.733 82.2333 131.8 83.9C131.267 83.9667 130.533 84 129.6 84C124.467 84 120.6 83.1667 118 81.5L118.1 70.7C116.5 69.3 114.4 68.6 111.8 68.6C107.733 68.6 104.133 71.7333 101 78C97.8667 84.2 96.3 91.7667 96.3 100.7C96.3 106.633 97.2667 111 99.2 113.8C101.133 116.6 103.433 118 106.1 118C110.1 118 113.7 116 116.9 112C120.1 108 122.4 103.233 123.8 97.7L129.2 98.6C126.667 117.667 122.833 131.9 117.7 141.3C112.567 150.7 105.733 155.4 97.2 155.4ZM92.1 145.9C92.1 147.767 93.6667 148.7 96.8 148.7C98.4 148.7 100.3 147.7 102.5 145.7C104.7 143.767 106.367 141.233 107.5 138.1C103.633 138.433 100.1 139.3 96.9 140.7C93.7 142.167 92.1 143.9 92.1 145.9Z" fill="white" fill-opacity="0.7"/>
</svg>
